<?xml version="1.0" standalone="no"?>
<!DOCTYPE svg PUBLIC "-//W3C//DTD SVG 20010904//EN"
 "http://www.w3.org/TR/2001/REC-SVG-20010904/DTD/svg10.dtd">
<svg version="1.0" xmlns="http://www.w3.org/2000/svg"
 width="900.000000pt" height="900.000000pt" viewBox="0 0 900.000000 900.000000"
 preserveAspectRatio="xMidYMid meet">

<g transform="translate(0.000000,900.000000) scale(0.100000,-0.100000)"
fill="#000000" stroke="none">
<path d="M4492 6912 l-113 -3 3 -30 3 -31 130 0 130 0 3 30 c4 37 -3 38 -156
34z"/>
<path d="M4410 6775 c0 -25 3 -45 7 -45 28 0 203 65 200 74 -2 7 -42 12 -105
14 l-102 3 0 -46z"/>
<path d="M4535 6725 c-38 -13 -78 -24 -87 -24 -25 -1 -48 -29 -48 -58 0 -22 3
-24 28 -19 23 6 140 39 180 51 13 5 17 76 5 74 -5 0 -39 -11 -78 -24z"/>
<path d="M4505 6606 l-100 -32 -3 -48 c-3 -46 -2 -47 20 -40 22 7 83 24 161
46 21 6 41 17 44 25 7 17 -5 83 -15 82 -4 -1 -52 -15 -107 -33z"/>
<path d="M1107 6480 c26 -98 395 -262 1053 -468 231 -72 331 -103 410 -126
292 -85 723 -222 852 -271 10 -4 31 -28 47 -54 75 -122 171 -197 336 -259 49
-19 197 -52 232 -52 36 0 38 -3 48 -105 3 -33 9 -105 15 -160 5 -55 18 -190
30 -300 74 -724 78 -749 79 -615 1 41 5 183 11 315 8 215 26 753 32 1005 l2
95 -128 7 c-197 10 -257 28 -319 97 -43 48 -57 93 -57 188 l0 72 -37 10 c-37
10 -430 106 -938 231 -137 34 -566 140 -952 236 -386 96 -706 174 -711 174 -6
0 -8 -9 -5 -20z"/>
<path d="M4498 6467 l-98 -30 0 -44 c0 -23 1 -46 2 -50 3 -10 12 -8 131 28
l97 30 0 49 c0 60 3 60 -132 17z"/>
<path d="M7315 6361 c-527 -132 -1009 -251 -1680 -416 -170 -42 -327 -81 -347
-86 l-38 -10 0 -73 c0 -209 -111 -285 -418 -286 -90 0 -92 0 -88 -22 3 -13 8
-144 11 -293 3 -148 13 -443 20 -655 8 -212 15 -416 16 -455 1 -87 5 -77 19
45 10 88 17 157 55 525 8 77 25 241 36 365 12 124 25 230 30 236 5 6 35 14 66
18 94 11 235 55 309 96 105 60 169 119 225 209 16 27 37 52 47 56 106 41 599
198 852 271 47 14 126 38 175 53 50 16 137 43 195 61 547 167 931 321 1043
420 48 43 67 81 39 79 -10 0 -264 -63 -567 -138z"/>
<path d="M4505 6323 c-44 -13 -87 -28 -95 -32 -17 -9 -28 -121 -12 -121 5 0
52 13 103 30 52 16 99 30 105 30 23 0 32 26 27 73 -7 56 -10 57 -128 20z"/>
<path d="M4515 6163 c-60 -18 -113 -37 -118 -42 -4 -4 -7 -35 -5 -68 l3 -59
120 36 120 35 3 59 c2 32 -1 62 -5 66 -4 4 -57 -8 -118 -27z"/>
<path d="M1350 6110 c0 -38 39 -144 75 -206 39 -67 114 -136 193 -177 101 -53
149 -69 482 -162 91 -25 244 -68 340 -95 441 -125 966 -271 1380 -385 74 -20
144 -39 154 -42 17 -5 18 -1 12 27 -3 18 -6 42 -6 54 0 19 -12 24 -97 44 -221
52 -374 133 -513 271 l-95 94 -190 59 c-104 33 -230 72 -280 88 -49 15 -142
44 -205 63 -260 80 -551 170 -650 202 -58 18 -179 56 -270 85 -91 28 -202 64
-247 80 l-83 28 0 -28z"/>
<path d="M7575 6112 c-69 -23 -157 -51 -365 -117 -58 -18 -150 -47 -205 -65
-55 -18 -120 -38 -145 -45 -25 -7 -142 -43 -260 -80 -118 -37 -242 -76 -275
-85 -33 -10 -127 -39 -210 -65 -82 -26 -204 -64 -270 -84 l-120 -38 -95 -94
c-98 -97 -185 -156 -295 -199 -33 -13 -64 -27 -70 -31 -5 -3 -62 -19 -125 -35
-63 -15 -116 -28 -116 -28 -1 -1 -5 -25 -9 -55 -7 -49 -6 -53 11 -48 11 3 80
22 154 42 74 20 155 43 180 50 25 7 106 30 180 50 124 34 350 96 525 145 39
11 120 34 180 51 61 16 139 38 175 49 36 10 121 34 190 54 664 187 660 185
752 232 136 69 219 162 262 296 15 47 26 93 24 104 -3 19 -5 19 -73 -4z"/>
<path d="M4610 6020 c-14 -5 -71 -23 -128 -41 -101 -31 -121 -47 -71 -59 49
-12 -67 -30 -191 -30 -108 0 -125 2 -152 21 -26 19 -29 27 -26 60 3 34 1 39
-17 39 -11 0 -36 -13 -55 -29 -32 -26 -35 -33 -37 -89 -1 -33 -6 -76 -11 -96
-19 -67 15 -147 72 -171 41 -17 80 -9 70 14 -18 42 -16 60 11 87 26 25 30 26
113 22 82 -4 87 -6 113 -37 15 -19 30 -45 34 -60 4 -14 13 -40 22 -58 13 -28
13 -75 4 -375 -6 -189 -18 -563 -26 -833 -8 -269 -19 -636 -25 -815 -6 -179
-15 -466 -20 -638 l-9 -314 68 -156 c66 -150 99 -225 142 -321 11 -24 24 -40
28 -35 4 5 57 120 116 257 l108 247 -2 143 c-1 78 -6 273 -11 432 -6 160 -17
520 -25 800 -8 281 -19 643 -24 805 -6 162 -13 401 -17 531 l-7 237 28 71 c37
93 58 111 133 118 88 8 129 -2 147 -37 11 -22 12 -35 5 -56 -27 -70 78 -46
120 28 19 33 21 48 15 91 -4 29 -6 73 -6 99 2 58 -20 103 -59 123 -41 21 -59
19 -53 -5 9 -34 -6 -69 -37 -85 -37 -19 -256 -20 -315 0 -28 9 -33 13 -17 14
20 1 22 6 22 56 0 30 -1 55 -2 54 -2 0 -14 -4 -28 -9z m-143 -512 l33 -23 0
-1615 c0 -897 -4 -1610 -9 -1605 -4 6 -43 90 -85 187 l-77 177 10 333 c6 183
15 479 21 658 6 179 15 465 20 635 6 171 15 486 20 700 11 419 18 575 28 575
3 0 21 -10 39 -22z"/>
<path d="M1525 5558 c15 -50 90 -168 136 -216 80 -80 200 -132 374 -161 59
-10 112 -19 460 -81 99 -17 218 -38 265 -45 47 -8 150 -25 230 -39 80 -13 190
-31 245 -40 55 -8 156 -24 225 -35 69 -11 193 -30 275 -41 83 -11 175 -25 205
-29 30 -5 58 -7 62 -5 11 7 -2 97 -16 110 -6 6 -105 34 -221 62 -115 28 -358
88 -540 132 -537 132 -969 236 -1325 320 -74 18 -189 45 -254 61 -65 16 -121
29 -123 29 -2 0 -1 -10 2 -22z"/>
<path d="M7430 5570 c-14 -4 -74 -20 -135 -34 -231 -53 -422 -99 -760 -181
-126 -31 -277 -67 -335 -81 -58 -14 -249 -61 -425 -104 -176 -43 -417 -102
-535 -131 -118 -29 -220 -57 -226 -63 -14 -13 -27 -103 -16 -109 4 -3 45 1 92
8 47 7 139 20 205 29 265 37 921 145 1320 216 119 21 233 41 350 61 261 43
385 125 486 321 41 80 39 88 -21 68z"/>
<path d="M1840 5073 c0 -11 89 -124 139 -176 86 -90 164 -122 326 -137 107 -9
1181 -30 1539 -30 l179 0 -7 43 c-4 23 -10 45 -14 49 -4 3 -52 11 -107 17 -55
6 -154 18 -220 26 -365 43 -735 88 -845 100 -154 18 -322 38 -550 65 -206 25
-422 50 -432 50 -5 0 -8 -3 -8 -7z"/>
<path d="M7005 5064 c-104 -12 -286 -34 -580 -69 -71 -9 -188 -23 -260 -31
-366 -42 -418 -49 -840 -100 -66 -8 -167 -19 -225 -26 -58 -6 -106 -12 -107
-12 0 -1 -4 -22 -8 -48 l-7 -48 258 1 c143 0 540 6 884 14 527 11 635 16 690
31 87 23 133 47 192 102 45 42 158 183 158 196 0 8 -21 6 -155 -10z"/>
<path d="M3760 4679 c-209 -8 -907 -33 -1262 -45 -109 -4 -198 -10 -198 -13 1
-9 136 -113 173 -133 18 -9 57 -25 87 -34 63 -19 192 -15 390 10 63 8 241 31
395 51 154 20 332 43 395 51 143 18 272 34 283 34 5 0 7 19 5 43 -4 51 18 48
-268 36z"/>
<path d="M4977 4683 c-4 -3 -7 -23 -7 -44 l0 -38 58 -6 c57 -6 166 -21 382
-50 63 -8 153 -19 200 -25 132 -15 398 -49 558 -70 156 -21 266 -10 355 37 39
20 176 124 177 134 0 4 -98 10 -217 13 -120 4 -321 11 -448 16 -126 5 -387 14
-580 20 -192 5 -377 12 -411 15 -33 3 -64 2 -67 -2z"/>
<path d="M3979 4526 c-2 -2 -53 -11 -114 -20 -137 -20 -337 -50 -475 -71 -141
-22 -256 -39 -430 -65 -226 -33 -220 -27 -93 -87 151 -72 212 -82 355 -59 61
10 120 22 132 26 11 5 113 34 226 65 113 31 225 62 250 70 25 7 81 23 125 35
44 12 84 26 88 30 5 4 5 24 2 44 -6 31 -11 36 -34 36 -15 0 -30 -2 -32 -4z"/>
<path d="M4955 4494 c-3 -20 -3 -40 2 -44 7 -8 201 -63 608 -175 306 -84 376
-83 567 8 59 28 107 52 105 53 -3 3 -182 32 -362 59 -60 9 -150 22 -200 30
-91 15 -176 27 -430 65 -77 11 -164 25 -194 30 -84 15 -88 14 -96 -26z"/>
<path d="M3975 4365 c-38 -13 -144 -47 -235 -75 -91 -28 -183 -58 -205 -65
-22 -8 -107 -35 -188 -61 -81 -25 -146 -48 -144 -50 2 -2 71 -11 153 -20 217
-22 336 -5 484 70 110 56 202 106 216 117 12 10 8 87 -5 100 -3 4 -37 -3 -76
-16z"/>
<path d="M4945 4377 c-2 -7 -6 -29 -9 -50 -4 -35 -2 -39 32 -61 61 -38 253
-133 304 -150 111 -36 275 -40 486 -10 53 8 48 14 -31 37 -99 29 -142 42 -312
97 -202 65 -334 107 -408 130 -42 14 -59 15 -62 7z"/>
</g>
</svg>
