<svg width="29" height="21" viewBox="0 0 29 21" fill="none" xmlns="http://www.w3.org/2000/svg">
<path d="M14.4646 0.00678447L13.9819 0.0195985L13.9947 0.147739L14.0076 0.280151H14.5628H15.1181L15.1309 0.152011C15.148 -0.0060296 15.1181 -0.010301 14.4646 0.00678447Z" fill="black"/>
<path d="M14.1143 0.591969C14.1143 0.698753 14.1271 0.78418 14.1442 0.78418C14.2638 0.78418 15.0112 0.506541 14.9984 0.468099C14.9899 0.4382 14.819 0.416843 14.5499 0.4083L14.1143 0.395486V0.591969Z" fill="black"/>
<path d="M14.6479 0.805516C14.4856 0.861044 14.3148 0.908029 14.2763 0.908029C14.1695 0.9123 14.0713 1.0319 14.0713 1.15577C14.0713 1.24974 14.0841 1.25828 14.1909 1.23692C14.2891 1.21129 14.7889 1.07034 14.9597 1.01908C15.0153 0.997727 15.0323 0.694461 14.9811 0.703003C14.9597 0.703003 14.8145 0.749988 14.6479 0.805516Z" fill="black"/>
<path d="M14.5204 1.31383L14.0933 1.45051L14.0805 1.65554C14.0677 1.85202 14.0719 1.85629 14.1659 1.82639C14.2599 1.79649 14.5204 1.72388 14.8536 1.62991C14.9433 1.60428 15.0287 1.5573 15.0415 1.52313C15.0714 1.45051 15.0202 1.1686 14.9775 1.17287C14.9604 1.17715 14.7553 1.23694 14.5204 1.31383Z" fill="black"/>
<path d="M0.00588718 1.85204C0.116942 2.27064 1.69307 2.97114 4.50363 3.85104C5.49031 4.15858 5.91745 4.29099 6.25488 4.38923C7.50212 4.7523 9.34307 5.33747 9.89408 5.54677C9.93679 5.56385 10.0265 5.66637 10.0948 5.77742C10.4152 6.29853 10.8252 6.61888 11.53 6.8837C11.7393 6.96486 12.3715 7.10582 12.521 7.10582C12.6747 7.10582 12.6833 7.11863 12.726 7.55431C12.7388 7.69526 12.7644 8.0028 12.7901 8.23772C12.8114 8.47265 12.8669 9.04928 12.9182 9.51913C13.2343 12.6116 13.2514 12.7184 13.2556 12.146C13.2599 11.9709 13.277 11.3644 13.3026 10.8005C13.3368 9.8822 13.4137 7.58421 13.4393 6.50782L13.4478 6.10205L12.9011 6.07215C12.0597 6.02943 11.8034 5.95255 11.5386 5.65782C11.3549 5.4528 11.2951 5.26059 11.2951 4.85481V4.54727L11.137 4.50456C10.979 4.46184 9.30036 4.05179 7.13051 3.51787C6.54534 3.37265 4.71292 2.91988 3.06418 2.50983C1.41544 2.09978 0.0486008 1.76662 0.027244 1.76662C0.00161583 1.76662 -0.00692689 1.80506 0.00588718 1.85204Z" fill="black"/>
<path d="M14.4899 1.90755L14.0713 2.03569V2.22363C14.0713 2.32187 14.0756 2.42012 14.0798 2.4372C14.0926 2.47991 14.1311 2.47137 14.6394 2.3176L15.0537 2.18946V1.98017C15.0537 1.72388 15.0665 1.72388 14.4899 1.90755Z" fill="black"/>
<path d="M26.5226 2.36032C24.2716 2.92414 22.2128 3.43243 19.3467 4.13721C18.6206 4.3166 17.95 4.48319 17.8645 4.50454L17.7022 4.54726V4.85907C17.7022 5.75178 17.2281 6.0764 15.9168 6.08067C15.5324 6.08067 15.5238 6.08067 15.5409 6.17464C15.5537 6.23017 15.5751 6.78972 15.5879 7.42615C15.6007 8.05831 15.6434 9.31836 15.6733 10.2239C15.7075 11.1294 15.7374 12.0008 15.7417 12.1674C15.746 12.539 15.763 12.4963 15.8228 11.9751C15.8656 11.5993 15.8955 11.3045 16.0578 9.73268C16.0919 9.40379 16.1645 8.70329 16.2115 8.17364C16.2628 7.64399 16.3183 7.19123 16.3397 7.1656C16.361 7.13997 16.4892 7.1058 16.6216 7.08871C17.0231 7.04173 17.6254 6.85379 17.9414 6.67866C18.3899 6.42238 18.6633 6.17037 18.9025 5.78595C18.9708 5.67062 19.0605 5.56384 19.1032 5.54675C19.556 5.37163 21.6618 4.70102 22.7424 4.38922C22.9432 4.32942 23.2806 4.2269 23.4899 4.16283C23.7035 4.09449 24.0751 3.97917 24.3228 3.90228C26.6593 3.18896 28.2995 2.53117 28.7779 2.10831C28.9829 1.92464 29.064 1.76233 28.9445 1.77087C28.9017 1.77087 27.8168 2.03997 26.5226 2.36032Z" fill="black"/>
<path d="M14.5201 2.52263C14.3321 2.57816 14.1485 2.64223 14.1143 2.65931C14.0417 2.69776 13.9947 3.17615 14.063 3.17615C14.0844 3.17615 14.2851 3.12062 14.503 3.04801C14.7251 2.97967 14.9258 2.91987 14.9515 2.91987C15.0497 2.91987 15.0882 2.80881 15.0668 2.60806C15.0369 2.36886 15.0241 2.36459 14.5201 2.52263Z" fill="black"/>
<path d="M14.5628 3.20603C14.3065 3.28291 14.0801 3.36407 14.0587 3.38542C14.0417 3.40251 14.0288 3.53492 14.0374 3.67588L14.0502 3.92789L14.5628 3.77412L15.0753 3.62462L15.0881 3.37261C15.0967 3.23593 15.0839 3.10779 15.0668 3.0907C15.0497 3.07362 14.8233 3.12487 14.5628 3.20603Z" fill="black"/>
<path d="M1.04395 3.43241C1.04395 3.59472 1.21053 4.04748 1.3643 4.31231C1.53088 4.59849 1.85123 4.89321 2.18867 5.06834C2.62008 5.29472 2.8251 5.36306 4.24746 5.7603C4.63616 5.86708 5.28967 6.05075 5.69972 6.16608C7.58339 6.7 9.82586 7.32361 11.5942 7.81055C11.9103 7.89598 12.2093 7.97713 12.252 7.98995C12.3246 8.0113 12.3289 7.99422 12.3032 7.87462C12.2904 7.79773 12.2776 7.69522 12.2776 7.64397C12.2776 7.56281 12.2264 7.54145 11.8633 7.45603C10.9193 7.23392 10.2658 6.88794 9.67209 6.29849L9.26631 5.89698L8.45475 5.64497C8.01053 5.50402 7.47234 5.33743 7.25877 5.26909C7.04947 5.20502 6.65224 5.08115 6.38314 4.99999C5.27259 4.65829 4.02962 4.27386 3.60676 4.13718C3.35902 4.0603 2.84219 3.89798 2.45349 3.77412C2.0648 3.65452 1.59068 3.50075 1.39847 3.43241L1.04395 3.31281V3.43241Z" fill="black"/>
<path d="M27.6333 3.42387C27.3385 3.52211 26.9626 3.6417 26.0742 3.92361C25.8265 4.0005 25.4335 4.12437 25.1986 4.20125C24.9637 4.27814 24.686 4.36356 24.5792 4.39346C24.4724 4.42336 23.9727 4.57713 23.4687 4.73517C22.9647 4.89321 22.435 5.0598 22.2941 5.09824C22.1531 5.14095 21.7516 5.26482 21.3971 5.37588C21.0468 5.48693 20.5257 5.64924 20.2438 5.73467L19.7312 5.89698L19.3255 6.29849C18.9069 6.71281 18.5353 6.96482 18.0654 7.14849C17.9245 7.20402 17.792 7.26382 17.7664 7.2809C17.7451 7.29372 17.5016 7.36206 17.2325 7.4304C16.9634 7.49447 16.737 7.55 16.737 7.55C16.7327 7.55427 16.7157 7.65678 16.6986 7.78492C16.6687 7.99422 16.6729 8.0113 16.7456 7.98995C16.7925 7.97713 17.0873 7.89598 17.4034 7.81055C17.7194 7.72512 18.0654 7.62688 18.1722 7.59698C18.279 7.56708 18.625 7.46884 18.941 7.38341C19.4707 7.23819 20.436 6.97336 21.1835 6.76407C21.3501 6.71708 21.6961 6.61884 21.9523 6.54623C22.2129 6.47789 22.5461 6.38392 22.6998 6.33693C22.8536 6.29422 23.2167 6.1917 23.5114 6.10628C26.3476 5.30753 26.3305 5.31608 26.7235 5.11532C27.3044 4.8206 27.6589 4.42336 27.8425 3.851C27.9066 3.65025 27.9536 3.45376 27.9451 3.40678C27.9322 3.32562 27.9237 3.32562 27.6333 3.42387Z" fill="black"/>
<path d="M14.9686 3.81684C14.9088 3.8382 14.6654 3.91508 14.4219 3.99197C13.9905 4.12438 13.9051 4.19272 14.1186 4.24398C14.3279 4.29523 13.8325 4.37212 13.3028 4.37212C12.8415 4.37212 12.7689 4.36357 12.6536 4.28242C12.5425 4.20126 12.5297 4.16709 12.5425 4.02614C12.5553 3.88091 12.5468 3.85955 12.4699 3.85955C12.4229 3.85955 12.3161 3.91508 12.235 3.98342C12.0983 4.09448 12.0855 4.12438 12.0769 4.36357C12.0727 4.50453 12.0513 4.6882 12.0299 4.77362C11.9488 5.05981 12.094 5.40151 12.3375 5.50403C12.5126 5.57664 12.6792 5.54247 12.6365 5.44423C12.5596 5.26483 12.5681 5.18795 12.6835 5.07262C12.7945 4.96584 12.8116 4.96156 13.1661 4.97865C13.5164 4.99573 13.5377 5.00428 13.6488 5.13669C13.7129 5.21785 13.7769 5.3289 13.794 5.39297C13.8111 5.45277 13.8495 5.56383 13.888 5.64071C13.9435 5.76031 13.9435 5.96106 13.9051 7.24247C13.8794 8.04976 13.8282 9.64724 13.794 10.8005C13.7598 11.9495 13.7129 13.5171 13.6872 14.2817C13.6616 15.0462 13.6232 16.2721 13.6018 17.0068L13.5634 18.348L13.8538 19.0143C14.1357 19.655 14.2767 19.9754 14.4603 20.3854C14.5073 20.488 14.5629 20.5563 14.5799 20.5349C14.597 20.5136 14.8234 20.0224 15.0754 19.4372L15.5367 18.3822L15.5282 17.7714C15.5239 17.4382 15.5026 16.6053 15.4812 15.9261C15.4556 15.2427 15.4086 13.705 15.3744 12.5091C15.3402 11.3088 15.2933 9.76257 15.2719 9.07061C15.2463 8.37865 15.2164 7.3578 15.1993 6.80252L15.1694 5.79021L15.289 5.48694C15.447 5.0897 15.5367 5.01282 15.8571 4.98292C16.233 4.94875 16.4081 4.99146 16.485 5.14096C16.532 5.23493 16.5362 5.29046 16.5063 5.38016C16.391 5.67915 16.8395 5.57664 17.0189 5.26056C17.1 5.1196 17.1086 5.05553 17.083 4.87187C17.0659 4.748 17.0573 4.56006 17.0573 4.449C17.0659 4.20126 16.9719 4.00905 16.8053 3.92362C16.6302 3.83393 16.5533 3.84247 16.5789 3.94498C16.6174 4.09021 16.5533 4.2397 16.4209 4.30805C16.2629 4.3892 15.3274 4.39347 15.0754 4.30805C14.9558 4.2696 14.9345 4.25252 15.0028 4.24825C15.0882 4.24398 15.0968 4.22262 15.0968 4.00905C15.0968 3.88091 15.0925 3.77413 15.0882 3.7784C15.0797 3.7784 15.0284 3.79548 14.9686 3.81684ZM14.3578 6.00378L14.4988 6.10202V13.0003C14.4988 16.8317 14.4817 19.8771 14.4603 19.8558C14.4433 19.8302 14.2767 19.4714 14.0973 19.057L13.7684 18.301L13.8111 16.8787C13.8367 16.097 13.8752 14.8327 13.9008 14.0681C13.9264 13.3035 13.9649 12.0819 13.9862 11.3558C14.0119 10.6254 14.0503 9.27991 14.0717 8.36584C14.1186 6.57614 14.1485 5.90981 14.1913 5.90981C14.2041 5.90981 14.281 5.95252 14.3578 6.00378Z" fill="black"/>
<path d="M1.79131 5.79021C1.85538 6.00378 2.17573 6.5078 2.37221 6.71283C2.71392 7.05454 3.22648 7.27665 3.9697 7.40052C4.22171 7.44323 4.44809 7.48167 5.93452 7.7465C6.35739 7.81911 6.86568 7.90881 7.06643 7.93871C7.26719 7.97288 7.70714 8.04549 8.04885 8.10529C8.39056 8.16082 8.86041 8.2377 9.09533 8.27614C9.33025 8.31032 9.76166 8.37866 10.0564 8.42564C10.3511 8.47263 10.8808 8.55378 11.231 8.60077C11.5855 8.64775 11.9785 8.70755 12.1066 8.72464C12.2348 8.74599 12.3544 8.75454 12.3715 8.74599C12.4184 8.71609 12.3629 8.33167 12.3031 8.27614C12.2775 8.25052 11.8546 8.13092 11.3591 8.01132C10.8679 7.89172 9.83 7.63544 9.05262 7.4475C6.7589 6.88368 4.91367 6.43946 3.39307 6.08067C3.07699 6.00378 2.58578 5.88846 2.30814 5.82011C2.0305 5.75177 1.79131 5.69624 1.78276 5.69624C1.77422 5.69624 1.77849 5.73896 1.79131 5.79021Z" fill="black"/>
<path d="M27.0134 5.73896C26.9536 5.75605 26.6974 5.82439 26.4368 5.88419C25.4501 6.11057 24.6343 6.30705 23.1906 6.65731C22.6524 6.78972 22.0074 6.94349 21.7597 7.00329C21.5119 7.06308 20.6961 7.26384 19.9443 7.44751C19.1926 7.63117 18.1632 7.88319 17.6592 8.00705C17.1551 8.13092 16.7195 8.25052 16.6938 8.27615C16.634 8.33168 16.5785 8.7161 16.6255 8.74173C16.6426 8.75454 16.8177 8.73746 17.0185 8.70756C17.2192 8.67766 17.6122 8.62213 17.8941 8.58369C19.026 8.42565 21.828 7.96434 23.5323 7.66107C24.0406 7.57138 24.5275 7.48595 25.0273 7.40052C26.1421 7.21685 26.6717 6.8666 27.1031 6.02942C27.2783 5.68771 27.2697 5.65354 27.0134 5.73896Z" fill="black"/>
<path d="M3.13721 7.86183C3.13721 7.90881 3.51736 8.39148 3.73093 8.61359C4.09826 8.99801 4.43143 9.13469 5.12339 9.19876C5.58042 9.23721 10.1679 9.3269 11.697 9.3269H12.4616L12.4317 9.14324C12.4146 9.04499 12.389 8.95102 12.3719 8.93394C12.3548 8.92113 12.1498 8.88695 11.9148 8.86133C11.6799 8.8357 11.2571 8.78444 10.9751 8.75027C9.4161 8.5666 7.8357 8.37439 7.36585 8.32314C6.70806 8.24625 5.99047 8.16082 5.0166 8.0455C4.1367 7.93871 3.21409 7.83193 3.17138 7.83193C3.15002 7.83193 3.13721 7.84474 3.13721 7.86183Z" fill="black"/>
<path d="M25.1986 7.90027C24.7543 7.95153 23.977 8.0455 22.7212 8.19499C22.4179 8.23344 21.9182 8.29324 21.6106 8.32741C20.0473 8.5068 19.8252 8.5367 18.0227 8.75454C17.7408 8.78871 17.3094 8.8357 17.0616 8.8656C16.8139 8.89123 16.6089 8.91685 16.6046 8.91685C16.6046 8.92113 16.5875 9.01082 16.5704 9.12188L16.5405 9.3269L17.6425 9.32263C18.2533 9.32263 19.9491 9.297 21.4184 9.26283C23.6694 9.21585 24.1307 9.19449 24.3657 9.13042C24.7373 9.03218 24.9337 8.92967 25.1858 8.69474C25.378 8.51535 25.8606 7.91308 25.8606 7.85756C25.8606 7.82339 25.7709 7.83193 25.1986 7.90027Z" fill="black"/>
<path d="M11.3377 9.54475C10.445 9.57892 7.46362 9.6857 5.94729 9.73696C5.48171 9.75404 5.10156 9.77967 5.10156 9.79248C5.10583 9.83093 5.68247 10.2751 5.84051 10.3606C5.91739 10.399 6.08397 10.4674 6.21212 10.5058C6.48121 10.587 7.03222 10.5699 7.87795 10.4631C8.14704 10.4289 8.90734 10.3307 9.56513 10.2452C10.2229 10.1598 10.9832 10.0616 11.2523 10.0274C11.8631 9.95052 12.4141 9.88218 12.4611 9.88218C12.4825 9.88218 12.491 9.80103 12.4825 9.69851C12.4654 9.48068 12.5594 9.49349 11.3377 9.54475Z" fill="black"/>
<path d="M16.5362 9.52765C16.5192 9.54046 16.5063 9.62589 16.5063 9.71559V9.8779L16.7541 9.90353C16.9976 9.92916 17.4631 9.99323 18.3857 10.1171C18.6548 10.1513 19.0393 10.1983 19.24 10.2239C19.8038 10.2879 20.94 10.4332 21.6234 10.5229C22.2898 10.6126 22.7596 10.5656 23.1398 10.3648C23.3063 10.2794 23.8915 9.83519 23.8958 9.79247C23.8958 9.77539 23.4772 9.74976 22.9689 9.73694C22.4563 9.71986 21.5978 9.68996 21.0553 9.6686C20.5172 9.64725 19.4023 9.6088 18.578 9.58318C17.7579 9.56182 16.9677 9.53192 16.8224 9.5191C16.6815 9.50629 16.5491 9.51056 16.5362 9.52765Z" fill="black"/>
<path d="M12.2732 10.1983C12.2647 10.2068 12.0468 10.2452 11.7863 10.2837C11.2011 10.3691 10.3468 10.4973 9.75737 10.5869C9.15511 10.6809 8.66391 10.7535 7.92069 10.8646C6.95536 11.0055 6.98099 10.9799 7.52345 11.2362C8.16843 11.5437 8.42898 11.5864 9.03978 11.4882C9.30034 11.4455 9.55235 11.3942 9.6036 11.3772C9.65059 11.3558 10.0863 11.2319 10.5689 11.0995C11.0516 10.9671 11.53 10.8347 11.6368 10.8005C11.7436 10.7706 11.9828 10.7023 12.1707 10.651C12.3586 10.5998 12.5295 10.54 12.5466 10.5229C12.5679 10.5058 12.5679 10.4204 12.5551 10.3349C12.5295 10.2025 12.5081 10.1812 12.4099 10.1812C12.3458 10.1812 12.2817 10.1897 12.2732 10.1983Z" fill="black"/>
<path d="M16.4419 10.3349C16.429 10.4203 16.429 10.5058 16.4504 10.5229C16.4803 10.557 17.3089 10.792 19.0474 11.2703C20.3544 11.6291 20.6534 11.6249 21.4692 11.2362C21.7212 11.1166 21.9263 11.0141 21.9177 11.0098C21.9049 10.997 21.1403 10.8731 20.3715 10.7578C20.1152 10.7193 19.7308 10.6638 19.5172 10.6296C19.1285 10.5656 18.7655 10.5143 17.6805 10.352C17.3516 10.305 16.98 10.2452 16.8519 10.2239C16.4931 10.1598 16.476 10.1641 16.4419 10.3349Z" fill="black"/>
<path d="M12.2562 10.8859C12.0939 10.9415 11.6411 11.0867 11.2524 11.2063C10.8637 11.3259 10.4707 11.454 10.3768 11.4839C10.2828 11.5181 9.91974 11.6334 9.57376 11.7445C9.22778 11.8513 8.95015 11.9495 8.95869 11.958C8.96723 11.9666 9.26195 12.005 9.61221 12.0435C10.5391 12.1374 11.0474 12.0648 11.6795 11.7445C12.1494 11.5053 12.5424 11.2917 12.6022 11.2447C12.6534 11.202 12.6363 10.8731 12.5808 10.8176C12.568 10.8005 12.4228 10.8304 12.2562 10.8859Z" fill="black"/>
<path d="M16.3993 10.8347C16.3908 10.8646 16.3737 10.9586 16.3609 11.0483C16.3438 11.1978 16.3523 11.2149 16.4976 11.3088C16.7581 11.4711 17.5782 11.8769 17.796 11.9495C18.2702 12.1033 18.9707 12.1204 19.8719 11.9922C20.0983 11.9581 20.0769 11.9324 19.7395 11.8342C19.3166 11.7103 19.133 11.6548 18.4068 11.4199C17.544 11.1422 16.9802 10.9628 16.6641 10.8646C16.4847 10.8048 16.4121 10.8005 16.3993 10.8347Z" fill="black"/>
</svg>
