<?xml version="1.0" standalone="no"?>
<!DOCTYPE svg PUBLIC "-//W3C//DTD SVG 20010904//EN"
 "http://www.w3.org/TR/2001/REC-SVG-20010904/DTD/svg10.dtd">
<svg version="1.0" xmlns="http://www.w3.org/2000/svg"
 width="1000.000000pt" height="1000.000000pt" viewBox="0 0 1000.000000 1000.000000"
 preserveAspectRatio="xMidYMid meet">
<metadata>
Created by potrace 1.14, written by Peter Selinger 2001-2017
</metadata>
<g transform="translate(0.000000,1000.000000) scale(0.100000,-0.100000)"
fill="#000000" stroke="none">
<path d="M4545 8344 c-198 -113 -226 -129 -282 -161 -53 -29 -564 -319 -783
-443 -41 -23 -95 -54 -120 -68 -25 -14 -90 -51 -145 -82 -55 -31 -125 -71
-155 -87 -30 -17 -217 -123 -415 -235 -198 -113 -385 -218 -415 -235 -30 -17
-75 -43 -100 -57 l-45 -25 -1 -1863 c-1 -1025 2 -1870 7 -1879 6 -13 83 -63
264 -172 10 -7 52 -33 93 -59 40 -27 76 -48 78 -48 3 0 17 -8 32 -19 37 -26
112 -73 287 -181 83 -51 186 -116 230 -144 45 -28 90 -56 100 -63 11 -6 155
-96 320 -200 165 -103 308 -192 317 -198 20 -11 464 -289 543 -340 28 -17 100
-62 160 -99 61 -38 121 -76 135 -85 14 -10 31 -21 37 -25 10 -6 13 690 13
3423 -1 1887 -2 3431 -3 3431 -1 0 -69 -39 -152 -86z m-670 -3316 c0 -992 -2
-1804 -5 -1806 -3 -2 -16 1 -30 7 -24 11 -34 16 -90 52 -14 9 -50 30 -80 46
-112 62 -785 454 -794 463 -4 4 -8 559 -8 1232 l0 1223 59 36 c32 19 78 46
103 60 25 13 47 26 50 29 3 3 14 10 25 16 11 6 63 36 115 66 463 269 647 375
655 378 1 0 1 -811 0 -1802z"/>
<path d="M5295 6820 c0 -885 3 -1612 7 -1615 4 -4 19 2 35 13 23 17 311 195
638 395 44 27 94 58 112 70 l31 21 0 479 c0 263 3 481 6 484 3 3 16 -2 30 -10
14 -9 40 -25 58 -35 18 -11 113 -67 211 -126 98 -58 183 -106 188 -106 5 0 9
-4 9 -8 0 -5 15 -15 33 -24 17 -9 112 -63 210 -122 99 -58 181 -106 183 -106
3 0 10 -5 17 -10 7 -6 47 -31 90 -56 42 -24 77 -48 77 -52 -1 -6 -682 -433
-772 -484 -16 -9 -37 -23 -47 -32 -10 -9 -20 -16 -23 -16 -6 0 -440 -267 -528
-325 -19 -12 -116 -72 -215 -133 -99 -61 -185 -116 -192 -122 -7 -5 -14 -10
-17 -10 -18 0 -136 -85 -137 -99 -3 -45 -4 -3198 -1 -3207 2 -6 265 152 584
352 320 200 583 364 585 364 2 0 9 5 16 10 16 14 547 348 567 357 8 3 33 19
55 34 39 26 414 261 474 297 16 9 97 60 180 112 l151 95 1 85 c2 324 -1 753
-5 758 -3 2 -33 -12 -66 -32 -34 -20 -63 -36 -65 -36 -2 0 -38 -20 -79 -45
-42 -25 -78 -45 -80 -45 -2 0 -75 -40 -161 -90 -86 -49 -158 -90 -160 -90 -2
0 -32 -16 -67 -36 -34 -20 -101 -58 -148 -84 -290 -162 -527 -295 -740 -416
-118 -66 -216 -120 -218 -119 -8 6 -3 1238 5 1245 4 4 76 42 158 85 83 43 191
99 240 125 307 162 649 337 795 405 58 27 168 79 245 115 77 37 186 88 243
115 80 38 102 53 103 69 3 142 0 1727 -5 1734 -5 8 -101 64 -271 157 -27 15
-55 31 -60 36 -6 4 -35 21 -65 37 -30 16 -188 105 -350 197 -394 224 -504 286
-635 360 -164 92 -474 268 -795 450 -157 89 -319 180 -360 202 l-75 41 0
-1608z"/>
</g>
</svg>
