<svg width="156" height="96" viewBox="0 0 156 96" fill="none" xmlns="http://www.w3.org/2000/svg">
<path d="M98.662 10.2625H56.6621V85.7375H98.662V10.2625Z" fill="#FF5F00"/>
<path d="M59.3294 47.9999C59.3227 40.7311 60.9699 33.5561 64.1461 27.018C67.3224 20.4799 71.9445 14.7501 77.6625 10.2624C70.5815 4.69659 62.0775 1.2353 53.1223 0.274141C44.1672 -0.687021 35.1223 0.890695 27.0215 4.82703C18.9206 8.76336 12.0907 14.8995 7.31232 22.534C2.53396 30.1685 0 38.9934 0 47.9999C0 57.0065 2.53396 65.8314 7.31232 73.4659C12.0907 81.1004 18.9206 87.2365 27.0215 91.1728C35.1223 95.1091 44.1672 96.6869 53.1223 95.7257C62.0775 94.7645 70.5815 91.3033 77.6625 85.7374C71.9445 81.2497 67.3225 75.5199 64.1462 68.9818C60.97 62.4437 59.3228 55.2687 59.3294 47.9999V47.9999Z" fill="#EB001B"/>
<path d="M155.322 47.9999C155.323 57.0064 152.789 65.8312 148.011 73.4657C143.233 81.1002 136.403 87.2363 128.302 91.1727C120.202 95.1091 111.157 96.6868 102.202 95.7257C93.2468 94.7645 84.7429 91.3032 77.6621 85.7374C83.3751 81.2452 87.9936 75.5145 91.1693 68.9774C94.3451 62.4403 95.9952 55.2676 95.9952 47.9999C95.9952 40.7323 94.3451 33.5595 91.1693 27.0224C87.9936 20.4853 83.3751 14.7546 77.6621 10.2624C84.7429 4.69657 93.2468 1.23528 102.202 0.274128C111.157 -0.687022 120.202 0.890764 128.302 4.82714C136.403 8.76351 143.233 14.8996 148.011 22.5341C152.789 30.1686 155.323 38.9935 155.322 47.9999V47.9999Z" fill="#F79E1B"/>
<path d="M150.743 77.7434V76.1982H151.366V75.8834H149.779V76.1982H150.403V77.7434H150.743ZM153.824 77.7434V75.8804H153.337L152.778 77.1618L152.218 75.8804H151.732V77.7434H152.075V76.3381L152.6 77.5497H152.956L153.481 76.335V77.7434H153.824Z" fill="#F79E1B"/>
</svg>
