<svg width="352" height="97" viewBox="0 0 352 97" fill="none" xmlns="http://www.w3.org/2000/svg">
<path fill-rule="evenodd" clip-rule="evenodd" d="M32.5506 0.0163848C35.6953 -0.00242815 45.0412 -0.844175 49 12.5166C51.6667 21.5166 55.9145 36.2591 61.7435 56.7439H64.1174C70.3685 35.1474 74.6627 20.4049 77 12.5166C81 -0.983351 91 0.0166493 95 0.0166493L125.861 0.0166878V96.0164H94.4066V39.4422H92.2974L74.7632 96.0164H51.0978L33.5636 39.4003H31.4543V96.0164H0V0.0166878L32.5506 0.0163848ZM171.029 0.0166878V56.6331H173.538L194.867 10.0778C199.007 0.813193 207.831 0.0166878 207.831 0.0166878H238.27V96.0166H206.159V39.4003H203.649L182.739 85.9555C178.598 95.1782 169.356 96.0166 169.356 96.0166H138.917V0.0166878H171.029ZM349.26 45.6365C344.781 58.3294 330.715 67.4198 315.141 67.4198H281.467V96.0166H250.931V45.6365H349.26Z" fill="#0F754E"/>
<path fill-rule="evenodd" clip-rule="evenodd" d="M316.614 0.0167236H249.329C250.93 21.3896 269.336 39.6861 288.39 39.6861H351.382C355.017 21.9228 342.503 0.0167236 316.614 0.0167236Z" fill="url(#paint0_linear_10_15)"/>
<defs>
<linearGradient id="paint0_linear_10_15" x1="352" y1="24.9705" x2="249.329" y2="24.9705" gradientUnits="userSpaceOnUse">
<stop stop-color="#1F5CD7"/>
<stop offset="1" stop-color="#02AEFF"/>
</linearGradient>
</defs>
</svg>
