<svg width="44" height="16" viewBox="0 0 44 16" fill="none" xmlns="http://www.w3.org/2000/svg">
<path d="M29.3077 3.3841V10.8468C29.3077 10.9651 29.2191 11.0537 29.1009 11.0537H27.5787C27.4605 11.0537 27.3719 10.9651 27.3719 10.8468V3.3841C27.3719 3.26587 27.4605 3.17721 27.5787 3.17721H29.1009C29.2191 3.19199 29.3077 3.28065 29.3077 3.3841ZM41.189 3.19199H39.4896C39.4009 3.19199 39.327 3.2511 39.2975 3.33976L37.9527 7.7583L36.4749 3.33976C36.4454 3.2511 36.3715 3.20677 36.2828 3.20677H35.0858C34.9972 3.20677 34.9233 3.26588 34.8937 3.33976L33.4159 7.7583L32.0712 3.33976C32.0416 3.2511 31.9677 3.19199 31.8791 3.19199H30.1796C30.1205 3.19199 30.0466 3.22154 30.0171 3.28065C29.9727 3.33976 29.9727 3.39887 29.9875 3.45798L32.4997 10.9355C32.5293 11.0242 32.6032 11.0685 32.6918 11.0685H34.0514C34.1401 11.0685 34.2139 11.0094 34.2435 10.9355L35.7065 6.57608L37.1695 10.9355C37.199 11.0242 37.2729 11.0685 37.3616 11.0685H38.7211C38.8098 11.0685 38.8837 11.0094 38.9132 10.9355L41.4255 3.45798C41.4402 3.39887 41.4402 3.32499 41.3959 3.28065C41.322 3.22154 41.2629 3.19199 41.189 3.19199ZM43.7603 3.19199H42.2382C42.12 3.19199 42.0314 3.28065 42.0314 3.39887V10.8616C42.0314 10.9798 42.12 11.0685 42.2382 11.0685H43.7603C43.8786 11.0685 43.9672 10.9798 43.9672 10.8616V3.39887C43.9672 3.28065 43.8638 3.19199 43.7603 3.19199ZM26.5 10.8025C26.5886 10.906 26.5147 11.0537 26.3817 11.0537H24.5198C24.4459 11.0537 24.372 11.0242 24.3276 10.9651L24.0173 10.5808C23.3671 10.9946 22.5987 11.2458 21.7859 11.2458C19.5101 11.2458 17.6629 9.39863 17.6629 7.12286C17.6629 4.84709 19.5101 2.99987 21.7859 2.99987C24.0617 2.99987 25.9089 4.84709 25.9089 7.12286C25.9089 7.93563 25.6724 8.70407 25.2586 9.35429L26.5 10.8025ZM22.7908 9.1474L21.978 8.1573C21.8893 8.05386 21.9632 7.8913 22.0962 7.8913H23.8104C23.8991 7.65485 23.9434 7.38886 23.9434 7.12286C23.9434 5.89631 23.0272 4.83231 21.7711 4.83231C20.515 4.83231 19.5988 5.89631 19.5988 7.12286C19.5988 8.34941 20.515 9.39863 21.7711 9.39863C22.1405 9.4134 22.4804 9.30996 22.7908 9.1474ZM12.9488 10.773C12.9931 11.0833 12.8897 11.2163 12.801 11.2163C12.6976 11.2163 12.5646 11.0833 12.402 10.8468C12.2395 10.5956 12.1804 10.3148 12.269 10.1818C12.3134 10.0932 12.4316 10.0488 12.5646 10.0932C12.8158 10.1818 12.9193 10.5808 12.9488 10.773ZM11.4858 11.4379C11.7961 11.7039 11.8996 12.0291 11.737 12.2507C11.6484 12.3689 11.5006 12.4428 11.3085 12.4428C11.1311 12.4428 10.9538 12.3837 10.8208 12.2655C10.54 12.0143 10.4514 11.6005 10.6435 11.3788C10.7174 11.2902 10.8356 11.2458 10.9834 11.2458C11.1459 11.2458 11.3233 11.3197 11.4858 11.4379ZM10.9538 14.024C12.3134 14.024 13.7911 14.4969 15.4315 15.9452C15.594 16.0929 15.8157 15.9156 15.6679 15.7235C14.0571 13.6989 12.5794 13.3147 11.1016 12.9896C9.28393 12.5906 8.35294 11.571 7.70272 10.4478C7.56972 10.2262 7.51061 10.2705 7.51061 10.5513C7.49583 10.906 7.52539 11.3641 7.59928 11.8222C7.52539 11.8222 7.4515 11.8222 7.37761 11.8222C4.79151 11.8222 2.6783 9.72374 2.6783 7.12286C2.6783 4.53676 4.77673 2.42354 7.37761 2.42354C9.97849 2.42354 12.0769 4.52198 12.0769 7.12286C12.0769 7.30019 12.0621 7.4923 12.0474 7.66963C11.7075 7.61052 11.0277 7.59575 10.5548 7.64008C10.3775 7.65486 10.407 7.74352 10.54 7.7583C12.0917 8.03908 13.1557 8.99963 13.4069 10.7434C13.4069 10.7877 13.466 10.8025 13.4808 10.7582C14.1162 9.69418 14.4857 8.45285 14.4857 7.10808C14.4857 3.19199 11.3085 0 7.37761 0C3.44674 0 0.269531 3.17721 0.269531 7.10808C0.269531 11.0242 3.44674 14.2162 7.37761 14.2162C8.41205 14.2309 9.44649 14.024 10.9538 14.024Z" fill="#FF8C00"/>
</svg>
