<svg width="45" height="25" viewBox="0 0 45 25" fill="none" xmlns="http://www.w3.org/2000/svg">
<path d="M38.3224 9.3625V15.686H40.4998V11.2252H42.5804V15.686H44.7095V9.3625H38.3224ZM34.2578 9.01936H36.2417L37.2578 7.15662H34.0643C31.7417 7.20564 30.1933 9.21544 30.1933 11.7154C30.1933 14.6566 31.8385 15.8331 33.8224 15.8331C35.8546 15.8331 37.3546 14.5096 37.3062 12.6958C37.2578 11.2743 36.0966 9.90171 34.5482 9.90171C33.6772 9.90171 32.8546 10.1958 32.3224 10.735C32.3707 9.70564 33.2417 9.01936 34.2578 9.01936ZM33.7256 11.5194C34.4998 11.5194 35.032 12.1566 35.032 12.8919C35.032 13.6272 34.4514 14.2154 33.6772 14.2154C33.0966 14.2154 32.4191 13.6762 32.4191 12.8919C32.4191 12.1566 32.9998 11.5194 33.7256 11.5194ZM26.7578 11.0292C27.6772 10.9801 28.4514 11.5194 28.4514 11.5194L29.274 10.0488C28.5482 9.50956 27.8224 9.21544 26.8546 9.21544C24.7256 9.21544 23.2256 10.9801 23.2256 12.4998C23.2256 14.3135 24.8224 15.8331 26.8062 15.8331C27.6772 15.8331 28.5482 15.539 29.2256 14.9998L28.4514 13.4801C28.4514 13.4801 27.7256 13.9703 26.7578 13.9703C26.1288 13.9703 25.3062 13.4311 25.3062 12.4998C25.3062 11.5684 26.1288 11.0292 26.7578 11.0292Z" fill="#1B0A40"/>
<path d="M6.04839 12.5L2.90323 14.3627L0 19.5098L11.9516 12.5H6.04839Z" fill="#874691"/>
<path d="M15.0968 7.20593L11.9516 9.06868L9 14.2157L20.9516 7.20593H15.0968Z" fill="#DA1844"/>
<path d="M11.9516 5.39218L9 0.245117V24.7549L11.9516 19.6079V5.39218Z" fill="#F9B229"/>
<path d="M9 0.245117L11.9516 5.39218L15.0968 7.2059H21L9 0.245117Z" fill="#F07F1A"/>
<path d="M9 10.7843V24.7549L11.9516 19.6078V15.9314L9 10.7843Z" fill="#72B22C"/>
<path d="M15.0968 17.7941L11.9516 19.6078L9 24.7549L20.9516 17.7941H15.0968Z" fill="#00743E"/>
<path d="M0 5.53906V19.5097L2.95161 14.3626V10.6371L0 5.53906Z" fill="#5F5A94"/>
<path d="M9 10.7842L0 5.53906L2.95161 10.6371L15.0968 17.794H21L9 10.7842Z" fill="#0D90CD"/>
</svg>
